<svg xmlns="http://www.w3.org/2000/svg" xmlns:xlink="http://www.w3.org/1999/xlink" version="1.1" width="1000" height="1000" viewBox="0 0 1000 1000" xml:space="preserve">
<desc>Created with Fabric.js 3.5.0</desc>
<defs>
</defs>
<rect x="0" y="0" width="100%" height="100%" fill="rgba(255,255,255,0)"/>
<g transform="matrix(1.7756 0 0 1.7756 500.0081 500.0081)" id="316539">
<path style="stroke: none; stroke-width: 1; stroke-dasharray: none; stroke-linecap: butt; stroke-dashoffset: 0; stroke-linejoin: miter; stroke-miterlimit: 4; is-custom-font: none; font-file-url: none; fill: rgb(166,218,149); fill-rule: nonzero; opacity: 1;" vector-effect="non-scaling-stroke" transform=" translate(-256, -256)" d="M 192 93.7 C 192 59.5 221 0 256 0 c 36 0 64 59.5 64 93.7 l 0 66.3 L 497.8 278.5 c 8.9 5.9 14.2 15.9 14.2 26.6 v 56.7 c 0 10.9 -10.7 18.6 -21.1 15.2 L 320 320 v 80 l 57.6 43.2 c 4 3 6.4 7.8 6.4 12.8 v 42 c 0 7.8 -6.3 14 -14 14 c -1.3 0 -2.6 -0.2 -3.9 -0.5 L 256 480 L 145.9 511.5 c -1.3 0.4 -2.6 0.5 -3.9 0.5 c -7.8 0 -14 -6.3 -14 -14 V 456 c 0 -5 2.4 -9.8 6.4 -12.8 L 192 400 V 320 L 21.1 377 C 10.7 380.4 0 372.7 0 361.8 V 305.1 c 0 -10.7 5.3 -20.7 14.2 -26.6 L 192 160 V 93.7 z" stroke-linecap="round"/>
</g>
</svg>