<svg xmlns="http://www.w3.org/2000/svg" xmlns:xlink="http://www.w3.org/1999/xlink" version="1.1" width="1000" height="1000" viewBox="0 0 1000 1000" xml:space="preserve">
<desc>Created with Fabric.js 3.5.0</desc>
<defs>
</defs>
<rect x="0" y="0" width="100%" height="100%" fill="rgba(255,255,255,0)"/>
<g transform="matrix(1.7753 0 0 1.7753 499.997 499.997)" id="913629">
<path style="stroke: none; stroke-width: 1; stroke-dasharray: none; stroke-linecap: butt; stroke-dashoffset: 0; stroke-linejoin: miter; stroke-miterlimit: 4; is-custom-font: none; font-file-url: none; fill: rgb(166,218,149); fill-rule: nonzero; opacity: 1;" vector-effect="non-scaling-stroke" transform=" translate(-256, -256)" d="M 361.5 1.2 c 5 2.1 8.6 6.6 9.6 11.9 L 391 121 l 107.9 19.8 c 5.3 1 9.8 4.6 11.9 9.6 s 1.5 10.7 -1.6 15.2 L 446.9 256 l 62.3 90.3 c 3.1 4.5 3.7 10.2 1.6 15.2 s -6.6 8.6 -11.9 9.6 L 391 391 L 371.1 498.9 c -1 5.3 -4.6 9.8 -9.6 11.9 s -10.7 1.5 -15.2 -1.6 L 256 446.9 l -90.3 62.3 c -4.5 3.1 -10.2 3.7 -15.2 1.6 s -8.6 -6.6 -9.6 -11.9 L 121 391 L 13.1 371.1 c -5.3 -1 -9.8 -4.6 -11.9 -9.6 s -1.5 -10.7 1.6 -15.2 L 65.1 256 L 2.8 165.7 c -3.1 -4.5 -3.7 -10.2 -1.6 -15.2 s 6.6 -8.6 11.9 -9.6 L 121 121 L 140.9 13.1 c 1 -5.3 4.6 -9.8 9.6 -11.9 s 10.7 -1.5 15.2 1.6 L 256 65.1 L 346.3 2.8 c 4.5 -3.1 10.2 -3.7 15.2 -1.6 z M 352 256 c 0 53 -43 96 -96 96 s -96 -43 -96 -96 s 43 -96 96 -96 s 96 43 96 96 z m 32 0 c 0 -70.7 -57.3 -128 -128 -128 s -128 57.3 -128 128 s 57.3 128 128 128 s 128 -57.3 128 -128 z" stroke-linecap="round"/>
</g>
</svg>