<svg xmlns="http://www.w3.org/2000/svg" xmlns:xlink="http://www.w3.org/1999/xlink" version="1.1" width="1000" height="1000" viewBox="0 0 1000 1000" xml:space="preserve">
<desc>Created with Fabric.js 3.5.0</desc>
<defs>
</defs>
<rect x="0" y="0" width="100%" height="100%" fill="rgba(255,255,255,0)"/>
<g transform="matrix(1.7756 0 0 1.7756 500.0081 500.0061)" id="183382">
<path style="stroke: none; stroke-width: 1; stroke-dasharray: none; stroke-linecap: butt; stroke-dashoffset: 0; stroke-linejoin: miter; stroke-miterlimit: 4; is-custom-font: none; font-file-url: none; fill: rgb(166,218,149); fill-rule: nonzero; opacity: 1;" vector-effect="non-scaling-stroke" transform=" translate(-256, -256)" d="M 0 224 V 416 c 0 17.7 14.3 32 32 32 H 96 V 336 c 0 -8.8 7.2 -16 16 -16 s 16 7.2 16 16 V 448 h 64 V 336 c 0 -8.8 7.2 -16 16 -16 s 16 7.2 16 16 V 448 h 64 V 336 c 0 -8.8 7.2 -16 16 -16 s 16 7.2 16 16 V 448 h 64 V 336 c 0 -8.8 7.2 -16 16 -16 s 16 7.2 16 16 V 448 h 64 c 17.7 0 32 -14.3 32 -32 V 224 c 0 -17.7 -14.3 -32 -32 -32 H 448 V 160 c 0 -17.7 -14.3 -32 -32 -32 H 384 V 96 c 0 -17.7 -14.3 -32 -32 -32 H 160 c -17.7 0 -32 14.3 -32 32 v 32 H 96 c -17.7 0 -32 14.3 -32 32 v 32 H 32 c -17.7 0 -32 14.3 -32 32 z" stroke-linecap="round"/>
</g>
</svg>