<svg xmlns="http://www.w3.org/2000/svg" xmlns:xlink="http://www.w3.org/1999/xlink" version="1.1" width="1000" height="1000" viewBox="0 0 1000 1000" xml:space="preserve">
<desc>Created with Fabric.js 3.5.0</desc>
<defs>
</defs>
<rect x="0" y="0" width="100%" height="100%" fill="rgba(255,255,255,0)"/>
<g transform="matrix(1.4204 0 0 1.4204 499.9905 499.9924)" id="943780">
<path style="stroke: none; stroke-width: 1; stroke-dasharray: none; stroke-linecap: butt; stroke-dashoffset: 0; stroke-linejoin: miter; stroke-miterlimit: 4; is-custom-font: none; font-file-url: none; fill: rgb(166,218,149); fill-rule: nonzero; opacity: 1;" vector-effect="non-scaling-stroke" transform=" translate(-320, -256)" d="M 38.8 5.1 C 28.4 -3.1 13.3 -1.2 5.1 9.2 S -1.2 34.7 9.2 42.9 l 592 464 c 10.4 8.2 25.5 6.3 33.7 -4.1 s 6.3 -25.5 -4.1 -33.7 L 525.6 386.7 c 39.6 -40.6 66.4 -86.1 79.9 -118.4 c 3.3 -7.9 3.3 -16.7 0 -24.6 c -14.9 -35.7 -46.2 -87.7 -93 -131.1 C 465.5 68.8 400.8 32 320 32 c -68.2 0 -125 26.3 -169.3 60.8 L 38.8 5.1 z M 223.1 149.5 C 248.6 126.2 282.7 112 320 112 c 79.5 0 144 64.5 144 144 c 0 24.9 -6.3 48.3 -17.4 68.7 L 408 294.5 c 5.2 -11.8 8 -24.8 8 -38.5 c 0 -53 -43 -96 -96 -96 c -2.8 0 -5.6 0.1 -8.4 0.4 c 5.3 9.3 8.4 20.1 8.4 31.6 c 0 10.2 -2.4 19.8 -6.6 28.3 l -90.3 -70.8 z m 223.1 298 L 373 389.9 c -16.4 6.5 -34.3 10.1 -53 10.1 c -79.5 0 -144 -64.5 -144 -144 c 0 -6.9 0.5 -13.6 1.4 -20.2 L 83.1 161.5 C 60.3 191.2 44 220.8 34.5 243.7 c -3.3 7.9 -3.3 16.7 0 24.6 c 14.9 35.7 46.2 87.7 93 131.1 C 174.5 443.2 239.2 480 320 480 c 47.8 0 89.9 -12.9 126.2 -32.5 z" stroke-linecap="round"/>
</g>
</svg>