<svg xmlns="http://www.w3.org/2000/svg" xmlns:xlink="http://www.w3.org/1999/xlink" version="1.1" width="1000" height="1000" viewBox="0 0 1000 1000" xml:space="preserve">
<desc>Created with Fabric.js 3.5.0</desc>
<defs>
</defs>
<rect x="0" y="0" width="100%" height="100%" fill="rgba(255,255,255,0)"/>
<g transform="matrix(1.5781 0 0 1.5781 499.9868 499.9897)" id="783523">
<path style="stroke: none; stroke-width: 1; stroke-dasharray: none; stroke-linecap: butt; stroke-dashoffset: 0; stroke-linejoin: miter; stroke-miterlimit: 4; is-custom-font: none; font-file-url: none; fill: rgb(166,218,149); fill-rule: nonzero; opacity: 1;" vector-effect="non-scaling-stroke" transform=" translate(-288.05, -256)" d="M 288 32 c -80.8 0 -145.5 36.8 -192.6 80.6 C 48.6 156 17.3 208 2.5 243.7 c -3.3 7.9 -3.3 16.7 0 24.6 C 17.3 304 48.6 356 95.4 399.4 C 142.5 443.2 207.2 480 288 480 s 145.5 -36.8 192.6 -80.6 c 46.8 -43.5 78.1 -95.4 93 -131.1 c 3.3 -7.9 3.3 -16.7 0 -24.6 c -14.9 -35.7 -46.2 -87.7 -93 -131.1 C 433.5 68.8 368.8 32 288 32 z M 432 256 c 0 79.5 -64.5 144 -144 144 s -144 -64.5 -144 -144 s 64.5 -144 144 -144 s 144 64.5 144 144 z M 288 192 c 0 35.3 -28.7 64 -64 64 c -11.5 0 -22.3 -3 -31.6 -8.4 c -0.2 2.8 -0.4 5.5 -0.4 8.4 c 0 53 43 96 96 96 s 96 -43 96 -96 s -43 -96 -96 -96 c -2.8 0 -5.6 0.1 -8.4 0.4 c 5.3 9.3 8.4 20.1 8.4 31.6 z" stroke-linecap="round"/>
</g>
</svg>