<svg xmlns="http://www.w3.org/2000/svg" xmlns:xlink="http://www.w3.org/1999/xlink" version="1.1" width="1000" height="1000" viewBox="0 0 1000 1000" xml:space="preserve">
<desc>Created with Fabric.js 3.5.0</desc>
<defs>
</defs>
<rect x="0" y="0" width="100%" height="100%" fill="rgba(255,255,255,0)"/>
<g transform="matrix(1.7756 0 0 1.7756 500.0081 500.0071)" id="385041">
<path style="stroke: none; stroke-width: 1; stroke-dasharray: none; stroke-linecap: butt; stroke-dashoffset: 0; stroke-linejoin: miter; stroke-miterlimit: 4; is-custom-font: none; font-file-url: none; fill: rgb(166,218,149); fill-rule: nonzero; opacity: 1;" vector-effect="non-scaling-stroke" transform=" translate(-256, -256)" d="M 256 80 C 149.9 80 62.4 159.4 49.6 262 c 9.4 -3.8 19.6 -6 30.4 -6 c 26.5 0 48 21.5 48 48 V 432 c 0 26.5 -21.5 48 -48 48 c -44.2 0 -80 -35.8 -80 -80 V 384 V 336 V 288 C 0 146.6 114.6 32 256 32 s 256 114.6 256 256 v 48 v 48 v 16 c 0 44.2 -35.8 80 -80 80 c -26.5 0 -48 -21.5 -48 -48 V 304 c 0 -26.5 21.5 -48 48 -48 c 10.8 0 21 2.1 30.4 6 C 449.6 159.4 362.1 80 256 80 z" stroke-linecap="round"/>
</g>
</svg>