<svg xmlns="http://www.w3.org/2000/svg" xmlns:xlink="http://www.w3.org/1999/xlink" version="1.1" width="1000" height="1000" viewBox="0 0 1000 1000" xml:space="preserve">
<desc>Created with Fabric.js 3.5.0</desc>
<defs>
</defs>
<rect x="0" y="0" width="100%" height="100%" fill="rgba(255,255,255,0)"/>
<g transform="matrix(1.7756 0 0 1.7756 500.0081 500.0069)" id="499597">
<path style="stroke: none; stroke-width: 1; stroke-dasharray: none; stroke-linecap: butt; stroke-dashoffset: 0; stroke-linejoin: miter; stroke-miterlimit: 4; is-custom-font: none; font-file-url: none; fill: rgb(166,218,149); fill-rule: nonzero; opacity: 1;" vector-effect="non-scaling-stroke" transform=" translate(-256, -261.0754)" d="M 47.6 300.4 L 228.3 469.1 c 7.5 7 17.4 10.9 27.7 10.9 s 20.2 -3.9 27.7 -10.9 L 464.4 300.4 c 30.4 -28.3 47.6 -68 47.6 -109.5 v -5.8 c 0 -69.9 -50.5 -129.5 -119.4 -141 C 347 36.5 300.6 51.4 268 84 L 256 96 L 244 84 c -32.6 -32.6 -79 -47.5 -124.6 -39.9 C 50.5 55.6 0 115.2 0 185.1 v 5.8 c 0 41.5 17.2 81.2 47.6 109.5 z" stroke-linecap="round"/>
</g>
</svg>