<svg xmlns="http://www.w3.org/2000/svg" xmlns:xlink="http://www.w3.org/1999/xlink" version="1.1" width="1000" height="1000" viewBox="0 0 1000 1000" xml:space="preserve">
<desc>Created with Fabric.js 3.5.0</desc>
<defs>
</defs>
<rect x="0" y="0" width="100%" height="100%" fill="rgba(255,255,255,0)"/>
<g transform="matrix(1.7756 0 0 1.7756 500.0071 500.0081)" id="618462">
<path style="stroke: none; stroke-width: 1; stroke-dasharray: none; stroke-linecap: butt; stroke-dashoffset: 0; stroke-linejoin: miter; stroke-miterlimit: 4; is-custom-font: none; font-file-url: none; fill: rgb(166,218,149); fill-rule: nonzero; opacity: 1;" vector-effect="non-scaling-stroke" transform=" translate(-224.0221, -256)" d="M 224 0 c -17.7 0 -32 14.3 -32 32 V 51.2 C 119 66 64 130.6 64 208 v 18.8 c 0 47 -17.3 92.4 -48.5 127.6 l -7.4 8.3 c -8.4 9.4 -10.4 22.9 -5.3 34.4 S 19.4 416 32 416 H 416 c 12.6 0 24 -7.4 29.2 -18.9 s 3.1 -25 -5.3 -34.4 l -7.4 -8.3 C 401.3 319.2 384 273.9 384 226.8 V 208 c 0 -77.4 -55 -142 -128 -156.8 V 32 c 0 -17.7 -14.3 -32 -32 -32 z m 45.3 493.3 c 12 -12 18.7 -28.3 18.7 -45.3 H 224 H 160 c 0 17 6.7 33.3 18.7 45.3 s 28.3 18.7 45.3 18.7 s 33.3 -6.7 45.3 -18.7 z" stroke-linecap="round"/>
</g>
</svg>