<svg xmlns="http://www.w3.org/2000/svg" xmlns:xlink="http://www.w3.org/1999/xlink" version="1.1" width="1000" height="1000" viewBox="0 0 1000 1000" xml:space="preserve">
<desc>Created with Fabric.js 3.5.0</desc>
<defs>
</defs>
<rect x="0" y="0" width="100%" height="100%" fill="rgba(255,255,255,0)"/>
<g transform="matrix(1.7756 0 0 1.7756 500.0081 500.0071)" id="29372">
<path style="stroke: none; stroke-width: 1; stroke-dasharray: none; stroke-linecap: butt; stroke-dashoffset: 0; stroke-linejoin: miter; stroke-miterlimit: 4; is-custom-font: none; font-file-url: none; fill: rgb(166,218,149); fill-rule: nonzero; opacity: 1;" vector-effect="non-scaling-stroke" transform=" translate(-256, -256)" d="M 0 96 C 0 60.7 28.7 32 64 32 H 448 c 35.3 0 64 28.7 64 64 V 416 c 0 35.3 -28.7 64 -64 64 H 64 c -35.3 0 -64 -28.7 -64 -64 V 96 z M 323.8 202.5 c -4.5 -6.6 -11.9 -10.5 -19.8 -10.5 s -15.4 3.9 -19.8 10.5 l -87 127.6 L 170.7 297 c -4.6 -5.7 -11.5 -9 -18.7 -9 s -14.2 3.3 -18.7 9 l -64 80 c -5.8 7.2 -6.9 17.1 -2.9 25.4 s 12.4 13.6 21.6 13.6 h 96 h 32 H 424 c 8.9 0 17.1 -4.9 21.2 -12.8 s 3.6 -17.4 -1.4 -24.7 l -120 -176 z M 112 192 c 26.5 0 48 -21.5 48 -48 s -21.5 -48 -48 -48 s -48 21.5 -48 48 s 21.5 48 48 48 z" stroke-linecap="round"/>
</g>
</svg>