<svg xmlns="http://www.w3.org/2000/svg" xmlns:xlink="http://www.w3.org/1999/xlink" version="1.1" width="1000" height="1000" viewBox="0 0 1000 1000" xml:space="preserve">
<desc>Created with Fabric.js 3.5.0</desc>
<defs>
</defs>
<rect x="0" y="0" width="100%" height="100%" fill="rgba(255,255,255,0)"/>
<g transform="matrix(1.5784 0 0 1.5784 499.9942 499.9955)" id="218040">
<path style="stroke: none; stroke-width: 1; stroke-dasharray: none; stroke-linecap: butt; stroke-dashoffset: 0; stroke-linejoin: miter; stroke-miterlimit: 4; is-custom-font: none; font-file-url: none; fill: rgb(166,218,149); fill-rule: nonzero; opacity: 1;" vector-effect="non-scaling-stroke" transform=" translate(-287.975, -256.0221)" d="M 301.1 34.8 C 312.6 40 320 51.4 320 64 V 448 c 0 12.6 -7.4 24 -18.9 29.2 s -25 3.1 -34.4 -5.3 L 131.8 352 H 64 c -35.3 0 -64 -28.7 -64 -64 V 224 c 0 -35.3 28.7 -64 64 -64 h 67.8 L 266.7 40.1 c 9.4 -8.4 22.9 -10.4 34.4 -5.3 z M 425 167 l 55 55 l 55 -55 c 9.4 -9.4 24.6 -9.4 33.9 0 s 9.4 24.6 0 33.9 l -55 55 l 55 55 c 9.4 9.4 9.4 24.6 0 33.9 s -24.6 9.4 -33.9 0 l -55 -55 l -55 55 c -9.4 9.4 -24.6 9.4 -33.9 0 s -9.4 -24.6 0 -33.9 l 55 -55 l -55 -55 c -9.4 -9.4 -9.4 -24.6 0 -33.9 s 24.6 -9.4 33.9 0 z" stroke-linecap="round"/>
</g>
</svg>