<svg xmlns="http://www.w3.org/2000/svg" xmlns:xlink="http://www.w3.org/1999/xlink" version="1.1" width="1000" height="1000" viewBox="0 0 1000 1000" xml:space="preserve">
<desc>Created with Fabric.js 3.5.0</desc>
<defs>
</defs>
<rect x="0" y="0" width="100%" height="100%" fill="rgba(255,255,255,0)"/>
<g transform="matrix(1.4205 0 0 1.4205 500.0145 500.0104)" id="764491">
<path style="stroke: none; stroke-width: 1; stroke-dasharray: none; stroke-linecap: butt; stroke-dashoffset: 0; stroke-linejoin: miter; stroke-miterlimit: 4; is-custom-font: none; font-file-url: none; fill: rgb(166,218,149); fill-rule: nonzero; opacity: 1;" vector-effect="non-scaling-stroke" transform=" translate(-320, -255.9709)" d="M 533.6 32.5 C 598.5 85.3 640 165.8 640 256 s -41.5 170.8 -106.4 223.5 c -10.3 8.4 -25.4 6.8 -33.8 -3.5 s -6.8 -25.4 3.5 -33.8 C 557.5 398.2 592 331.2 592 256 s -34.5 -142.2 -88.7 -186.3 c -10.3 -8.4 -11.8 -23.5 -3.5 -33.8 s 23.5 -11.8 33.8 -3.5 z M 473.1 107 c 43.2 35.2 70.9 88.9 70.9 149 s -27.7 113.8 -70.9 149 c -10.3 8.4 -25.4 6.8 -33.8 -3.5 s -6.8 -25.4 3.5 -33.8 C 475.3 341.3 496 301.1 496 256 s -20.7 -85.3 -53.2 -111.8 c -10.3 -8.4 -11.8 -23.5 -3.5 -33.8 s 23.5 -11.8 33.8 -3.5 z m -60.5 74.5 C 434.1 199.1 448 225.9 448 256 s -13.9 56.9 -35.4 74.5 c -10.3 8.4 -25.4 6.8 -33.8 -3.5 s -6.8 -25.4 3.5 -33.8 C 393.1 284.4 400 271 400 256 s -6.9 -28.4 -17.7 -37.3 c -10.3 -8.4 -11.8 -23.5 -3.5 -33.8 s 23.5 -11.8 33.8 -3.5 z M 301.1 34.8 C 312.6 40 320 51.4 320 64 V 448 c 0 12.6 -7.4 24 -18.9 29.2 s -25 3.1 -34.4 -5.3 L 131.8 352 H 64 c -35.3 0 -64 -28.7 -64 -64 V 224 c 0 -35.3 28.7 -64 64 -64 h 67.8 L 266.7 40.1 c 9.4 -8.4 22.9 -10.4 34.4 -5.3 z" stroke-linecap="round"/>
</g>
</svg>