<svg xmlns="http://www.w3.org/2000/svg" xmlns:xlink="http://www.w3.org/1999/xlink" version="1.1" width="1000" height="1000" viewBox="0 0 1000 1000" xml:space="preserve">
<desc>Created with Fabric.js 3.5.0</desc>
<defs>
</defs>
<rect x="0" y="0" width="100%" height="100%" fill="rgba(255,255,255,0)"/>
<g transform="matrix(1.4207 0 0 1.4207 499.9987 499.9992)" id="35517">
<path style="stroke: none; stroke-width: 1; stroke-dasharray: none; stroke-linecap: butt; stroke-dashoffset: 0; stroke-linejoin: miter; stroke-miterlimit: 4; is-custom-font: none; font-file-url: none; fill: rgb(166,218,149); fill-rule: nonzero; opacity: 1;" vector-effect="non-scaling-stroke" transform=" translate(-319.95, -256)" d="M 54.2 202.9 C 123.2 136.7 216.8 96 320 96 s 196.8 40.7 265.8 106.9 c 12.8 12.2 33 11.8 45.2 -0.9 s 11.8 -33 -0.9 -45.2 C 549.7 79.5 440.4 32 320 32 S 90.3 79.5 9.8 156.7 C -2.9 169 -3.3 189.2 8.9 202 s 32.5 13.2 45.2 0.9 z M 320 256 c 56.8 0 108.6 21.1 148.2 56 c 13.3 11.7 33.5 10.4 45.2 -2.8 s 10.4 -33.5 -2.8 -45.2 C 459.8 219.2 393 192 320 192 s -139.8 27.2 -190.5 72 c -13.3 11.7 -14.5 31.9 -2.8 45.2 s 31.9 14.5 45.2 2.8 c 39.5 -34.9 91.3 -56 148.2 -56 z m 64 160 c 0 -35.3 -28.7 -64 -64 -64 s -64 28.7 -64 64 s 28.7 64 64 64 s 64 -28.7 64 -64 z" stroke-linecap="round"/>
</g>
</svg>